<?xml version="1.0" encoding="UTF-8"?>
<svg version="1.1" xmlns="http://www.w3.org/2000/svg" width="180" height="179">
<path d="M0 0 C0.96550781 0.31775391 1.93101563 0.63550781 2.92578125 0.96289062 C3.91191406 1.30900391 4.89804688 1.65511719 5.9140625 2.01171875 C7.42806641 2.51348633 7.42806641 2.51348633 8.97265625 3.02539062 C16.33878704 5.49894329 16.33878704 5.49894329 17.5390625 6.69921875 C17.61150303 8.71886074 17.62283438 10.74088999 17.6015625 12.76171875 C17.59253906 13.86644531 17.58351563 14.97117187 17.57421875 16.109375 C17.56261719 16.96402344 17.55101562 17.81867187 17.5390625 18.69921875 C18.44261475 18.98120117 19.34616699 19.26318359 20.27709961 19.55371094 C23.62305236 20.60658338 26.96356644 21.6740941 30.30151367 22.75195312 C31.74785321 23.21561299 33.19611058 23.67333365 34.64624023 24.125 C36.72911433 24.77487382 38.80418235 25.44571852 40.87890625 26.12109375 C42.13050537 26.5190918 43.38210449 26.91708984 44.67163086 27.32714844 C47.5390625 28.69921875 47.5390625 28.69921875 48.22025204 30.52712631 C48.53832371 32.69418527 48.60191273 34.63808019 48.50746155 36.82476807 C48.4751796 37.63802551 48.44289764 38.45128296 48.40963745 39.28918457 C48.36863922 40.17247437 48.32764099 41.05576416 48.28540039 41.96582031 C48.24653214 42.90274719 48.20766388 43.83967407 48.1676178 44.80499268 C48.03783817 47.90020509 47.89981255 50.99499205 47.76171875 54.08984375 C47.67010085 56.23644893 47.57899737 58.38307613 47.48838806 60.52972412 C47.24856213 66.17865668 47.00174248 71.82726289 46.753479 77.47583008 C46.50136052 83.24021674 46.25583839 89.0048839 46.00976562 94.76953125 C45.52599702 106.07971184 45.03484162 117.38955872 44.5390625 128.69921875 C43.54999153 129.05174461 43.54999153 129.05174461 42.54093933 129.41139221 C36.23327364 131.65978146 29.92596098 133.90915814 23.61901379 136.15956211 C19.74696542 137.54111733 15.87463321 138.92187266 12.00205803 140.30195045 C10.12164917 140.97232248 8.24150341 141.64343233 6.36135864 142.31454468 C3.88971632 143.19637101 1.41744854 144.07644629 -1.05545044 144.95474243 C-6.48912492 146.89064521 -11.90559088 148.85022888 -17.27880859 150.94873047 C-18.58032112 151.45157814 -18.58032112 151.45157814 -19.90812683 151.96458435 C-21.46953619 152.57229338 -23.02607139 153.19277536 -24.57588196 153.82948303 C-30.24555865 156.02769554 -34.34395697 155.85291219 -39.99975586 153.75952148 C-40.75909424 153.38770752 -41.51843262 153.01589355 -42.30078125 152.6328125 C-43.13544922 152.22998047 -43.97011719 151.82714844 -44.83007812 151.41210938 C-45.67763672 150.99123047 -46.52519531 150.57035156 -47.3984375 150.13671875 C-48.71038086 149.49959961 -48.71038086 149.49959961 -50.04882812 148.84960938 C-52.19040176 147.80807903 -54.32626694 146.75482507 -56.4609375 145.69921875 C-56.4609375 151.30921875 -56.4609375 156.91921875 -56.4609375 162.69921875 C-60.78435815 161.83453462 -63.41338938 160.8945419 -67.25 158.93359375 C-68.35730469 158.37285156 -69.46460938 157.81210938 -70.60546875 157.234375 C-71.75402344 156.64527344 -72.90257813 156.05617187 -74.0859375 155.44921875 C-76.34794658 154.29619007 -78.61095891 153.14512732 -80.875 151.99609375 C-82.52205933 151.1448291 -82.52205933 151.1448291 -84.20239258 150.27636719 C-87.41202942 148.65802878 -87.41202942 148.65802878 -90.6940918 147.50488281 C-97.93957288 144.80894461 -97.93957288 144.80894461 -99.47167969 141.54785156 C-99.92448788 138.96345651 -100.04113127 136.57182847 -100.0234375 133.94921875 C-100.080572 132.22502657 -100.14402571 130.50102813 -100.21484375 128.77734375 C-100.21814697 128.0184082 -100.2214502 127.25947266 -100.22485352 126.47753906 C-100.30276123 125.89069336 -100.38066895 125.30384766 -100.4609375 124.69921875 C-101.1209375 124.36921875 -101.7809375 124.03921875 -102.4609375 123.69921875 C-102.7909375 91.35921875 -103.1209375 59.01921875 -103.4609375 25.69921875 C-97.46691007 23.03520656 -92.25742104 20.89042396 -86.02294922 19.34912109 C-85.23308624 19.14692459 -84.44322327 18.94472809 -83.62942505 18.73640442 C-81.0516717 18.07846228 -78.47124023 17.43177277 -75.890625 16.78515625 C-74.08161204 16.32556781 -72.27278722 15.86523821 -70.46414185 15.40420532 C-65.72414509 14.19791157 -60.98182496 13.00102319 -56.2388916 11.80633545 C-50.47939936 10.35380802 -44.7226377 8.8905047 -38.96554756 7.42849159 C-34.48620194 6.29113047 -30.00645635 5.15544012 -25.52536011 4.0249939 C-24.69959473 3.8163118 -23.87382935 3.6076297 -23.02304077 3.3926239 C-21.49415706 3.0063156 -19.96507078 2.62080761 -18.43572998 2.23631287 C-15.14136767 1.40302162 -11.87692441 0.52909938 -8.62463379 -0.45646667 C-5.06276342 -1.40704435 -3.45002678 -1.16761864 0 0 Z " fill="#000100" transform="translate(119.4609375,7.30078125)"/>
<path d="M0 0 C0.96550781 0.31775391 1.93101563 0.63550781 2.92578125 0.96289062 C3.91191406 1.30900391 4.89804688 1.65511719 5.9140625 2.01171875 C7.42806641 2.51348633 7.42806641 2.51348633 8.97265625 3.02539062 C16.33878704 5.49894329 16.33878704 5.49894329 17.5390625 6.69921875 C17.44903852 8.7233063 17.29265212 10.74466162 17.1015625 12.76171875 C16.99972656 13.86644531 16.89789063 14.97117187 16.79296875 16.109375 C16.66728516 17.39134766 16.66728516 17.39134766 16.5390625 18.69921875 C11.92270978 17.77158286 7.55065808 16.74097343 3.1640625 15.01171875 C-2.11658015 13.14246471 -7.0170933 13.85465974 -12.4609375 14.69921875 C-12.4609375 15.35921875 -12.4609375 16.01921875 -12.4609375 16.69921875 C-11.8009375 17.02921875 -11.1409375 17.35921875 -10.4609375 17.69921875 C-12.7709375 18.02921875 -15.0809375 18.35921875 -17.4609375 18.69921875 C-17.4609375 19.35921875 -17.4609375 20.01921875 -17.4609375 20.69921875 C-16.71328125 20.89257812 -15.965625 21.0859375 -15.1953125 21.28515625 C-14.21046875 21.54554687 -13.225625 21.8059375 -12.2109375 22.07421875 C-10.74914062 22.45707031 -10.74914062 22.45707031 -9.2578125 22.84765625 C-6.80256447 23.59520384 -4.70476345 24.47045692 -2.4609375 25.69921875 C-6.44656007 27.99861639 -10.15004197 29.30118972 -14.74121094 28.10522461 C-17.35951891 27.19085838 -19.94274033 26.2148845 -22.5234375 25.19921875 C-24.28069853 24.51064888 -26.04233912 23.83312991 -27.80859375 23.16796875 C-28.58211182 22.86310547 -29.35562988 22.55824219 -30.15258789 22.24414062 C-33.92266472 21.35415528 -36.86105117 22.49925664 -40.4609375 23.69921875 C-39.9659375 24.68921875 -39.9659375 24.68921875 -39.4609375 25.69921875 C-41.06775391 26.11494141 -41.06775391 26.11494141 -42.70703125 26.5390625 C-44.10421377 26.90476799 -45.50134665 27.27066321 -46.8984375 27.63671875 C-47.60548828 27.81912109 -48.31253906 28.00152344 -49.04101562 28.18945312 C-52.53668611 28.88071249 -52.53668611 28.88071249 -55.4609375 30.69921875 C-53.8109375 31.35921875 -52.1609375 32.01921875 -50.4609375 32.69921875 C-53.16024992 35.39853117 -55.6927717 36.51148095 -59.4609375 36.69921875 C-62.33117654 35.88390447 -64.983018 34.84193528 -67.71484375 33.64453125 C-70.92244082 32.37372552 -70.92244082 32.37372552 -76.4609375 32.69921875 C-76.7909375 42.26921875 -77.1209375 51.83921875 -77.4609375 61.69921875 C-74.4909375 62.68921875 -71.5209375 63.67921875 -68.4609375 64.69921875 C-66.18996057 65.57532766 -63.92745169 66.47383853 -61.67578125 67.3984375 C-60.48662109 67.88505859 -59.29746094 68.37167969 -58.07226562 68.87304688 C-56.2537207 69.62231445 -56.2537207 69.62231445 -54.3984375 70.38671875 C-53.13878201 70.90326346 -51.87901712 71.41954145 -50.61914062 71.93554688 C-47.56533355 73.18749077 -44.51298633 74.4429946 -41.4609375 75.69921875 C-41.4609375 79.98921875 -41.4609375 84.27921875 -41.4609375 88.69921875 C-45.69192109 87.28889089 -49.73526868 85.82246939 -53.84765625 84.1328125 C-55.03294922 83.64748047 -56.21824219 83.16214844 -57.43945312 82.66210938 C-58.67583652 82.15378025 -59.91216409 81.64531532 -61.1484375 81.13671875 C-63.58933927 80.13417722 -66.03088321 79.13323342 -68.47265625 78.1328125 C-70.08853638 77.4685022 -70.08853638 77.4685022 -71.73706055 76.79077148 C-73.62264126 76.03515337 -75.53383189 75.34158729 -77.4609375 74.69921875 C-77.4609375 76.01921875 -77.4609375 77.33921875 -77.4609375 78.69921875 C-76.378125 78.88484375 -76.378125 78.88484375 -75.2734375 79.07421875 C-72.50371856 79.68971185 -70.0639021 80.58366249 -67.4609375 81.69921875 C-67.4609375 84.66921875 -67.4609375 87.63921875 -67.4609375 90.69921875 C-66.3059375 91.04984375 -65.1509375 91.40046875 -63.9609375 91.76171875 C-56.58415552 94.20091151 -49.54416315 97.52697659 -42.4609375 100.69921875 C-42.4609375 104.98921875 -42.4609375 109.27921875 -42.4609375 113.69921875 C-47.01947276 112.22439852 -51.17002077 110.84467711 -55.4609375 108.69921875 C-55.9559375 114.63921875 -55.9559375 114.63921875 -56.4609375 120.69921875 C-54.8109375 121.02921875 -53.1609375 121.35921875 -51.4609375 121.69921875 C-51.4609375 125.98921875 -51.4609375 130.27921875 -51.4609375 134.69921875 C-53.1109375 134.03921875 -54.7609375 133.37921875 -56.4609375 132.69921875 C-56.4609375 142.59921875 -56.4609375 152.49921875 -56.4609375 162.69921875 C-60.78435815 161.83453462 -63.41338938 160.8945419 -67.25 158.93359375 C-68.35730469 158.37285156 -69.46460938 157.81210938 -70.60546875 157.234375 C-71.75402344 156.64527344 -72.90257813 156.05617187 -74.0859375 155.44921875 C-76.34794658 154.29619007 -78.61095891 153.14512732 -80.875 151.99609375 C-82.52205933 151.1448291 -82.52205933 151.1448291 -84.20239258 150.27636719 C-87.41202942 148.65802878 -87.41202942 148.65802878 -90.6940918 147.50488281 C-97.93957288 144.80894461 -97.93957288 144.80894461 -99.47167969 141.54785156 C-99.92448788 138.96345651 -100.04113127 136.57182847 -100.0234375 133.94921875 C-100.080572 132.22502657 -100.14402571 130.50102813 -100.21484375 128.77734375 C-100.21814697 128.0184082 -100.2214502 127.25947266 -100.22485352 126.47753906 C-100.30276123 125.89069336 -100.38066895 125.30384766 -100.4609375 124.69921875 C-101.1209375 124.36921875 -101.7809375 124.03921875 -102.4609375 123.69921875 C-102.7909375 91.35921875 -103.1209375 59.01921875 -103.4609375 25.69921875 C-97.46691007 23.03520656 -92.25742104 20.89042396 -86.02294922 19.34912109 C-85.23308624 19.14692459 -84.44322327 18.94472809 -83.62942505 18.73640442 C-81.0516717 18.07846228 -78.47124023 17.43177277 -75.890625 16.78515625 C-74.08161204 16.32556781 -72.27278722 15.86523821 -70.46414185 15.40420532 C-65.72414509 14.19791157 -60.98182496 13.00102319 -56.2388916 11.80633545 C-50.47939936 10.35380802 -44.7226377 8.8905047 -38.96554756 7.42849159 C-34.48620194 6.29113047 -30.00645635 5.15544012 -25.52536011 4.0249939 C-24.69959473 3.8163118 -23.87382935 3.6076297 -23.02304077 3.3926239 C-21.49415706 3.0063156 -19.96507078 2.62080761 -18.43572998 2.23631287 C-15.14136767 1.40302162 -11.87692441 0.52909938 -8.62463379 -0.45646667 C-5.06276342 -1.40704435 -3.45002678 -1.16761864 0 0 Z " fill="#11EA09" transform="translate(119.4609375,7.30078125)"/>
<path d="M0 0 C9 3 9 3 20 8 C20 17.9 20 27.8 20 38 C17.07125 36.700625 14.1425 35.40125 11.125 34.0625 C10.20348145 33.65394775 9.28196289 33.24539551 8.33251953 32.82446289 C7.60661621 32.5021167 6.88071289 32.17977051 6.1328125 31.84765625 C5.38918457 31.51773682 4.64555664 31.18781738 3.87939453 30.84790039 C2.57377635 30.25886273 1.28112582 29.64056291 0 29 C0 19.43 0 9.86 0 0 Z " fill="#000200" transform="translate(31,112)"/>
<path d="M0 0 C7.86325133 2.48536423 15.44039125 5.54707773 23.0625 8.6875 C24.32215549 9.20404471 25.58192038 9.7203227 26.84179688 10.23632812 C29.89560395 11.48827202 32.94795117 12.74377585 36 14 C36 18.29 36 22.58 36 27 C31.76901641 25.58967214 27.72566882 24.12325064 23.61328125 22.43359375 C22.42798828 21.94826172 21.24269531 21.46292969 20.02148438 20.96289062 C18.78510098 20.4545615 17.54877341 19.94609657 16.3125 19.4375 C13.87159823 18.43495847 11.43005429 17.43401467 8.98828125 16.43359375 C7.37240112 15.76928345 7.37240112 15.76928345 5.72387695 15.09155273 C3.83829624 14.33593462 1.92710561 13.64236854 0 13 C0 8.71 0 4.42 0 0 Z " fill="#D7DE05" transform="translate(42,69)"/>
<path d="M0 0 C0.99 0 1.98 0 3 0 C3.86953577 21.71296998 4.13278639 43.38574286 4.06866455 65.11437988 C4.05816357 69.07169017 4.0538116 73.02900773 4.04882812 76.98632812 C4.03831853 84.65757065 4.02141131 92.32877929 4 100 C2.68 99.67 1.36 99.34 0 99 C-0.15356395 86.23972168 -0.30174573 73.47939349 -0.4429636 60.71897221 C-0.50870045 54.79446542 -0.57632526 48.86999247 -0.64819336 42.94555664 C-0.71741905 37.23331908 -0.7817788 31.52104592 -0.84269524 25.80871391 C-0.86686072 23.62409902 -0.8928107 21.43950314 -0.92053413 19.2549305 C-0.95892192 16.20652368 -0.99109185 13.15811228 -1.02172852 10.10961914 C-1.03467453 9.19684204 -1.04762054 8.28406494 -1.06095886 7.34362793 C-1.07898082 5.22906446 -1.04529762 3.11415506 -1 1 C-0.67 0.67 -0.34 0.34 0 0 Z " fill="#CCE606" transform="translate(17,32)"/>
<path d="M0 0 C8.64411081 2.62410507 16.76925385 6.31383762 25 10 C25 14.29 25 18.58 25 23 C13.89119171 19.51813472 13.89119171 19.51813472 11 17 C10.6875 13.8125 10.6875 13.8125 11 11 C10.37351562 10.79503906 9.74703125 10.59007813 9.1015625 10.37890625 C8.28429688 10.10949219 7.46703125 9.84007813 6.625 9.5625 C5.81289063 9.29566406 5.00078125 9.02882813 4.1640625 8.75390625 C2 8 2 8 0 7 C0 4.69 0 2.38 0 0 Z " fill="#D7E005" transform="translate(52,98)"/>
<path d="M0 0 C0.13513292 1.7687398 0.23205586 3.54043055 0.3125 5.3125 C0.37050781 6.29863281 0.42851563 7.28476563 0.48828125 8.30078125 C0 11 0 11 -2.13671875 12.71875 C-5.10106902 14.04522597 -8.03797911 15.17783527 -11.125 16.1875 C-12.15882812 16.53167969 -13.19265625 16.87585938 -14.2578125 17.23046875 C-17 18 -17 18 -20 18 C-20 14.04 -20 10.08 -20 6 C-5.4 0 -5.4 0 0 0 Z " fill="#10E309" transform="translate(117,91)"/>
<path d="M0 0 C0 3.96 0 7.92 0 12 C-2.41429769 12.84080019 -4.83103993 13.67281402 -7.25 14.5 C-7.93191406 14.73847656 -8.61382812 14.97695312 -9.31640625 15.22265625 C-12.76413003 16.39421287 -15.31702904 17 -19 17 C-19 13.04 -19 9.08 -19 5 C-16.39741676 4.16142312 -13.79314353 3.32896656 -11.1875 2.5 C-10.08051758 2.14228516 -10.08051758 2.14228516 -8.95117188 1.77734375 C-5.86744804 0.80059864 -3.25504191 0 0 0 Z " fill="#10E509" transform="translate(155,79)"/>
<path d="M0 0 C-3 2 -3 2 -7 2 C-7 2.66 -7 3.32 -7 4 C-6.25234375 4.19335938 -5.5046875 4.38671875 -4.734375 4.5859375 C-3.74953125 4.84632812 -2.7646875 5.10671875 -1.75 5.375 C-0.77546875 5.63023438 0.1990625 5.88546875 1.203125 6.1484375 C3.65837303 6.89598509 5.75617405 7.77123817 8 9 C3.96880694 11.3256883 0.28569159 12.55948624 -4.36083984 11.42211914 C-7.06053188 10.53362894 -9.71715014 9.56914642 -12.375 8.5625 C-13.30183594 8.22412109 -14.22867188 7.88574219 -15.18359375 7.53710938 C-17.46062463 6.70376302 -19.73211312 5.85785286 -22 5 C-21 3 -21 3 -17.83203125 1.89453125 C-16.49455839 1.52515938 -15.15455282 1.16486837 -13.8125 0.8125 C-13.15185547 0.62236328 -12.49121094 0.43222656 -11.81054688 0.23632812 C-7.52941267 -0.90897036 -4.30098545 -1.05016285 0 0 Z " fill="#D0DB05" transform="translate(109,24)"/>
<path d="M0 0 C0.495 0.99 0.495 0.99 1 2 C-0.07121094 2.27714844 -1.14242187 2.55429687 -2.24609375 2.83984375 C-3.64327627 3.20554924 -5.04040915 3.57144446 -6.4375 3.9375 C-7.14455078 4.11990234 -7.85160156 4.30230469 -8.58007812 4.49023438 C-12.07574861 5.18149374 -12.07574861 5.18149374 -15 7 C-13.35 7.66 -11.7 8.32 -10 9 C-12.75609976 11.75609976 -15.14014264 12.92947104 -19 13 C-23.48951679 11.67616813 -27.73193666 9.91260583 -32 8 C-27.28307529 5.46893395 -22.26560046 4.27576336 -17.125 2.875 C-16.14402344 2.59785156 -15.16304687 2.32070313 -14.15234375 2.03515625 C-9.33912004 0.7165538 -5.04177739 -0.39308773 0 0 Z " fill="#CFDE05" transform="translate(79,31)"/>
<path d="M0 0 C0.99 0 1.98 0 3 0 C3 9.24 3 18.48 3 28 C2.01 27.67 1.02 27.34 0 27 C-0.19582583 22.68783519 -0.38027074 18.3752591 -0.5625 14.0625 C-0.61857422 12.83080078 -0.67464844 11.59910156 -0.73242188 10.33007812 C-0.78076172 9.16025391 -0.82910156 7.99042969 -0.87890625 6.78515625 C-0.9260376 5.70113525 -0.97316895 4.61711426 -1.02172852 3.50024414 C-1 1 -1 1 0 0 Z " fill="#DEE405" transform="translate(17,32)"/>
<path d="M0 0 C2.475 0.495 2.475 0.495 5 1 C5 5.29 5 9.58 5 14 C2.525 13.01 2.525 13.01 0 12 C0 8.04 0 4.08 0 0 Z " fill="#DBE205" transform="translate(63,128)"/>
<path d="M0 0 C0.99 0.33 1.98 0.66 3 1 C3 5.29 3 9.58 3 14 C2.01 13.67 1.02 13.34 0 13 C0 8.71 0 4.42 0 0 Z " fill="#EF0900" transform="translate(17,46)"/>
</svg>
